<?xml version="1.0" standalone="no"?>
<!DOCTYPE svg PUBLIC "-//W3C//DTD SVG 20010904//EN"
 "http://www.w3.org/TR/2001/REC-SVG-20010904/DTD/svg10.dtd">
<svg version="1.0" xmlns="http://www.w3.org/2000/svg"
 width="354.000000pt" height="354.000000pt" viewBox="0 0 354.000000 354.000000"
 preserveAspectRatio="xMidYMid meet">
<metadata>
Created by potrace 1.14, written by Peter Selinger 2001-2017
</metadata>
<g transform="translate(0.000000,354.000000) scale(0.100000,-0.100000)"
fill="#000000" stroke="none">
<path d="M1379 3410 c-292 -52 -559 -179 -794 -378 -109 -92 -127 -121 -122
-186 4 -41 10 -55 40 -83 69 -62 128 -57 218 20 232 198 397 283 659 342 102
23 348 31 463 15 195 -26 248 -73 200 -175 -9 -19 -25 -37 -34 -40 -10 -3 -64
3 -121 14 -199 37 -330 36 -497 -6 -139 -35 -190 -152 -103 -236 43 -41 77
-47 184 -31 297 45 533 -14 742 -185 93 -76 185 -197 206 -272 18 -60 -60
-124 -122 -100 -14 5 -51 43 -81 83 -150 203 -333 298 -572 298 -173 0 -298
-44 -436 -153 -99 -79 -116 -165 -45 -236 33 -32 42 -36 89 -36 47 0 60 5 120
48 37 27 91 59 120 72 144 63 317 31 438 -82 94 -88 135 -194 126 -327 -6
-105 -38 -178 -111 -254 -106 -111 -259 -156 -401 -118 -65 17 -95 33 -179 95
-53 39 -77 51 -105 51 -99 0 -174 -118 -125 -198 9 -15 39 -46 68 -69 306
-247 696 -222 951 61 137 153 140 156 174 156 43 0 68 -14 86 -49 21 -42 8
-75 -83 -197 -91 -123 -111 -168 -93 -212 26 -63 103 -109 160 -95 40 9 81 44
145 121 163 200 248 420 262 682 11 199 -19 343 -117 566 -27 61 -49 119 -49
128 0 10 13 31 29 47 42 42 99 41 135 -2 59 -70 141 -288 173 -462 25 -133 22
-359 -6 -494 -69 -328 -256 -618 -534 -823 -48 -35 -84 -67 -79 -71 12 -12
148 -39 225 -45 79 -6 203 14 243 41 38 25 54 68 58 157 4 90 -2 81 114 181
36 31 41 61 16 109 -9 17 -12 33 -7 37 4 4 25 19 46 35 44 32 46 51 17 144
-11 35 -20 72 -20 82 0 37 42 71 107 86 80 18 152 49 159 69 3 8 -3 32 -14 52
-11 21 -72 135 -136 253 -64 118 -116 224 -116 236 0 11 15 34 33 51 29 26 35
39 40 91 17 163 -44 367 -164 542 -231 338 -632 585 -1064 655 -128 21 -382
18 -516 -5z m-745 -522 c29 -40 -18 -86 -54 -53 -24 22 -25 38 -4 59 21 22 40
20 58 -6z m793 -95 c13 -19 12 -24 -7 -43 -19 -19 -24 -20 -43 -7 -27 17 -33
43 -16 63 17 20 48 14 66 -13z"/>
<path d="M885 2655 c-62 -22 -102 -88 -91 -150 14 -71 90 -125 159 -111 72 14
129 95 113 159 -9 37 -55 88 -93 103 -39 17 -38 17 -88 -1z"/>
<path d="M1590 1923 c-19 -10 -45 -34 -58 -53 -74 -110 70 -250 185 -180 41
25 64 60 69 107 12 97 -106 173 -196 126z"/>
<path d="M715 1420 c-31 -13 -74 -63 -85 -99 -12 -44 3 -80 75 -176 92 -122
192 -222 295 -295 53 -37 101 -79 107 -93 24 -51 -26 -137 -78 -137 -21 0
-153 88 -257 172 -122 97 -169 114 -235 82 -70 -33 -97 -117 -58 -181 24 -38
173 -167 279 -241 43 -30 131 -80 197 -112 256 -126 483 -170 797 -155 l148 7
-71 37 c-184 94 -310 263 -263 353 21 41 57 54 189 73 148 20 221 38 247 62
68 61 62 160 -12 213 -35 25 -82 25 -252 -1 -106 -15 -223 -3 -351 37 -207 66
-336 163 -480 363 -26 35 -59 72 -74 83 -29 19 -84 23 -118 8z m69 -93 c22
-16 18 -55 -6 -71 -40 -24 -80 44 -42 71 10 7 21 13 24 13 3 0 14 -6 24 -13z
m-145 -579 c11 -30 -4 -58 -32 -58 -43 0 -60 35 -31 64 22 23 53 20 63 -6z"/>
<path d="M298 1179 c-45 -23 -68 -64 -68 -119 0 -79 54 -130 137 -130 50 0 82
18 110 59 45 66 19 152 -57 192 -44 24 -75 23 -122 -2z"/>
</g>
</svg>
